<?xml version="1.0" encoding="utf-8"?>
<!-- Generator: Adobe Illustrator 22.1.0, SVG Export Plug-In . SVG Version: 6.00 Build 0)  -->
<svg version="1.1" id="Layer_1" xmlns="http://www.w3.org/2000/svg" xmlns:xlink="http://www.w3.org/1999/xlink" x="0px" y="0px"
	 viewBox="0 0 512 512" style="enable-background:new 0 0 512 512;" xml:space="preserve">
<g>
	<path d="M324.6,312.2c0,42.6-39.9,41.6-44.1,41.6h-81.3v-82.1h81.3C323.2,271.7,324.6,303.8,324.6,312.2z M274.2,238.7
		c0.7,0,38.6,1,38.6-36.5c0-15.6-3.5-36-38.6-36h-75v72.5H274.2z M481,106v300c-0.1,41.4-33.6,74.9-75,75H106
		c-41.4-0.1-74.9-33.6-75-75V106c0.1-41.4,33.6-74.9,75-75h300C447.4,31.1,480.9,64.6,481,106z M370.6,318.1
		c0-21.7-6.7-58.6-49.3-67.7v-0.7c23-9.8,37.5-28.4,37.5-55.9c0-7,2-65.1-77.9-65.1H153.3v262.5c128.8,0,140.5,1.7,164.3-5.7
		C331.9,381.1,370.6,367.5,370.6,318.1z" fill="#000000"/>
</g>
</svg>
